<?xml version="1.0" encoding="utf-8"?>
<!-- Generator: Adobe Illustrator 15.1.0, SVG Export Plug-In . SVG Version: 6.00 Build 0)  -->
<!DOCTYPE svg PUBLIC "-//W3C//DTD SVG 1.1//EN" "http://www.w3.org/Graphics/SVG/1.1/DTD/svg11.dtd">
<svg version="1.1" xmlns="http://www.w3.org/2000/svg" xmlns:xlink="http://www.w3.org/1999/xlink" x="0px" y="0px" width="512px"
	 height="512px" viewBox="0 0 512 512" enable-background="new 0 0 512 512" xml:space="preserve">
<g id="外框">
	<path fill="#FFFFFF" stroke="#B5B5B5" stroke-width="2" stroke-miterlimit="10" d="M509,469.234
		C509,491.197,491.796,509,469.833,509H44.363C22.402,509,4,491.197,4,469.234V43.764C4,21.803,22.402,4,44.363,4h425.47
		C491.796,4,509,21.803,509,43.764V469.234z"/>
</g>
<g id="icon_x5F_1">
	<g>
		<path fill="#163672" d="M157.238,353.343H89.273v14.417c0,23.952-3.311,42.396-9.932,55.333l-4.394-3.112
			c2.532-4.24,4.729-10.19,6.59-17.85c1.861-7.658,2.792-19.328,2.792-35.012v-17.896h35.424c-0.641-1.586-1.831-4.119-3.57-7.597
			l4.21-1.785c1.282,2.014,2.807,5.142,4.577,9.382h32.266V353.343z M157.512,411.742h-30.664v10.481h-4.76v-10.481H91.149v-4.21
			h30.938v-6.591H97.236V373.39h24.852v-7.095H93.392v-4.119h28.696v-5.721h4.76v5.721h28.513v4.119h-28.513v7.095h24.302v27.552
			h-24.302v6.591h30.664V411.742z M122.088,385.015v-7.506h-20.046v7.506H122.088z M122.088,396.822v-7.688h-20.046v7.688H122.088z
			 M146.574,385.015v-7.506h-19.726v7.506H146.574z M146.574,396.822v-7.688h-19.726v7.688H146.574z"/>
		<path fill="#163672" d="M251.152,355.769h-48.651c-3.509,6.987-7.78,13.578-12.814,19.771v47.187h-5.081v-40.962
			c-4.638,4.76-9.107,8.498-13.41,11.213l-1.693-4.76c11.716-9.031,20.809-19.848,27.277-32.449h-27.186v-4.852h29.749
			c1.556-2.746,3.234-6.315,5.034-10.709l4.897,1.602c-1.648,3.814-3.097,6.851-4.348,9.107h46.225V355.769z M251.152,396.914
			h-23.25v18.581c0,1.587-0.412,2.959-1.236,4.119c-0.824,1.159-1.945,1.976-3.364,2.449c-1.419,0.473-4.219,0.709-8.398,0.709
			c-2.472,0-4.943-0.092-7.415-0.274l-1.968-5.034c2.257,0.213,4.76,0.32,7.506,0.32c4.912,0,7.795-0.222,8.65-0.664
			c0.854-0.442,1.282-1.075,1.282-1.899v-18.307h-28.239v-4.76h28.239v-7.14c4.637-3.082,9.595-7.141,14.874-12.175h-36.66v-4.852
			h43.617v4.852c-5.858,5.858-11.488,10.664-16.888,14.417v4.897h23.25V396.914z"/>
		<path fill="#163672" d="M345.25,372.657l-2.883,4.302c-10.344-6.071-22.32-11.351-35.928-15.835v13.501h27.781v32.907h-60.093
			v-32.907h27.552v-18.353c-7.811,7.598-19.803,14.585-35.973,20.961l-3.295-4.302c15.012-4.973,26.818-11.381,35.424-19.223
			h-34.418v-4.668h38.262v-8.925h4.76v8.925h38.262v4.668h-38.262v2.563C321.055,360.91,333.992,366.372,345.25,372.657z
			 M345.158,420.255h-81.923v-4.668h81.923V420.255z M329.232,388.492v-9.199h-50.253v9.199H329.232z M329.232,402.635v-9.337
			h-50.253v9.337H329.232z"/>
		<path fill="#163672" d="M388.639,354.854h-31.396v-4.623h14.096l-4.166-8.695l4.715-1.785l4.576,10.48h12.176V354.854z
			 M385.938,368.538h-26.637v-4.485h26.637V368.538z M385.938,382.039h-26.637v-4.622h26.637V382.039z M384.701,420.164h-4.852
			v-4.943h-14.828v7.094h-4.852v-31.213h24.531V420.164z M379.85,410.507v-14.691h-14.828v14.691H379.85z M436.74,352.794
			c0,11.839-0.184,24.165-0.551,36.98c-0.365,12.814-0.74,20.359-1.121,22.632c-0.381,2.273-1.25,4.227-2.607,5.858
			c-1.359,1.632-3.082,2.73-5.172,3.295c-2.092,0.564-4.828,0.847-8.217,0.847h-5.033l-1.648-4.942
			c1.801,0.091,3.814,0.137,6.041,0.137c4.822,0,7.797-0.389,8.926-1.167s1.938-1.77,2.426-2.975s0.99-7.796,1.51-19.771
			s0.777-24.081,0.777-36.316h-29.428c-1.922,3.143-4.363,6.605-7.322,10.389h25.492v39.223H394.68v-38.17
			c-1.281,1.801-2.412,3.204-3.387,4.211l-3.754-2.884c8.879-10.923,15.027-21.053,18.445-30.39l4.531,1.511
			c-1.221,3.631-2.977,7.476-5.264,11.533H436.74z M416.145,384.099v-11.625h-16.705v11.625H416.145z M416.145,402.177v-13.409
			h-16.705v13.409H416.145z"/>
	</g>
	<g>
		
			<rect x="175.5" y="92.5" fill-rule="evenodd" clip-rule="evenodd" fill="#FFFFFF" stroke="#003366" stroke-width="3" stroke-miterlimit="10" width="147" height="175"/>
		<g>
			<polygon fill-rule="evenodd" clip-rule="evenodd" fill="#163672" points="306.192,143.981 306.192,158.375 291.81,158.375 
				291.81,143.981 306.192,143.981 			"/>
			<polygon fill-rule="evenodd" clip-rule="evenodd" fill="#163672" points="282.88,168.75 282.88,183.139 195.87,183.139 
				195.87,168.75 282.88,168.75 			"/>
			<polygon fill-rule="evenodd" clip-rule="evenodd" fill="#163672" points="306.192,168.75 306.192,183.139 291.81,183.139 
				291.81,168.75 306.192,168.75 			"/>
			<polygon fill-rule="evenodd" clip-rule="evenodd" fill="#163672" points="282.88,119.222 282.88,133.604 195.87,133.604 
				195.87,119.222 282.88,119.222 			"/>
			<polygon fill-rule="evenodd" clip-rule="evenodd" fill="#163672" points="306.192,119.222 306.192,133.604 291.81,133.604 
				291.81,119.222 306.192,119.222 			"/>
			<rect x="195.87" y="143.981" fill-rule="evenodd" clip-rule="evenodd" fill="#163672" width="87.01" height="14.394"/>
			<polygon fill-rule="evenodd" clip-rule="evenodd" fill="#163672" points="282.88,193.514 282.88,207.903 195.87,207.903 
				195.87,193.514 282.88,193.514 			"/>
			<polygon fill-rule="evenodd" clip-rule="evenodd" fill="#163672" points="306.192,193.514 306.192,207.903 291.81,207.903 
				291.81,193.514 306.192,193.514 			"/>
			<polygon fill-rule="evenodd" clip-rule="evenodd" fill="#163672" points="282.88,218.278 282.88,232.667 195.87,232.667 
				195.87,218.278 282.88,218.278 			"/>
			<polygon fill-rule="evenodd" clip-rule="evenodd" fill="#163672" points="306.192,218.278 306.192,232.667 291.81,232.667 
				291.81,218.278 306.192,218.278 			"/>
		</g>
		<g>
			<circle fill="#FFFFFF" stroke="#EA5400" stroke-width="8" stroke-miterlimit="10" cx="292.85" cy="217.536" r="32.608"/>
			
				<line fill="none" stroke="#EA5400" stroke-width="8" stroke-miterlimit="10" x1="311.102" y1="242.434" x2="338.373" y2="279.192"/>
		</g>
	</g>
</g>
</svg>
