<?xml version="1.0" encoding="utf-8"?>
<!-- Generator: Adobe Illustrator 15.1.0, SVG Export Plug-In . SVG Version: 6.00 Build 0)  -->
<!DOCTYPE svg PUBLIC "-//W3C//DTD SVG 1.1//EN" "http://www.w3.org/Graphics/SVG/1.1/DTD/svg11.dtd">
<svg version="1.1" xmlns="http://www.w3.org/2000/svg" xmlns:xlink="http://www.w3.org/1999/xlink" x="0px" y="0px" width="512px"
	 height="512px" viewBox="0 0 512 512" enable-background="new 0 0 512 512" xml:space="preserve">
<g id="外框">
	<path fill="#FFFFFF" stroke="#B5B5B5" stroke-width="2" stroke-miterlimit="10" d="M509,469.234
		C509,491.197,491.796,509,469.833,509H44.363C22.402,509,4,491.197,4,469.234V43.764C4,21.803,22.402,4,44.363,4h425.47
		C491.796,4,509,21.803,509,43.764V469.234z"/>
</g>
<g id="icon_x5F_1">
	<g>
		<path fill="#163672" d="M94.643,341.261c-0.366,1.922-1.281,5.324-2.746,10.206l-2.197,7.322v63.846h-4.806V370.78
			c-3.265,6.621-5.706,10.97-7.323,13.044l-2.792-4.531c6.042-9.641,11.137-22.7,15.287-39.177L94.643,341.261z M154.095,422.635
			h-4.897v-6.315h-45.173v6.315h-4.897v-79.04h54.967V422.635z M149.106,411.742V348.4h-45.081v63.342H149.106z M144.987,367.394
			h-16.431v10.802h11.351v25.492h-26.683v-25.492h10.664v-10.802h-15.652v-4.76h15.561v-9.199h4.76v9.199h16.431V367.394z
			 M135.055,398.79v-15.927h-17.071v15.927H135.055z"/>
		<path fill="#163672" d="M199.45,415.633c0,3.479-1.709,5.538-5.126,6.179c-1.709,0.305-4.21,0.366-7.506,0.183l-2.06-4.76
			c2.624,0.214,5.095,0.229,7.415,0.046c1.647-0.152,2.471-1.037,2.471-2.654V385.06c-2.563,2.991-6.621,7.323-12.174,12.998
			l-2.609-2.7c-1.281,11.29-3.402,20.153-6.362,26.591l-4.073-3.157c4.546-10.313,6.819-23.326,6.819-39.04v-37.209h23.204V415.633z
			 M194.645,378.24v-7.23l-2.654,2.288c-2.289-2.807-5.996-6.3-11.122-10.48v17.574c0,4.547-0.229,8.91-0.687,13.09
			C184.637,389.484,189.457,384.404,194.645,378.24z M194.645,347.348h-13.776v13.364l2.334-2.334
			c3.845,2.898,7.658,6.361,11.442,10.389V347.348z M250.939,418.013l-2.792,4.668c-8.543-2.716-16.08-6.528-22.609-11.441
			c-5.767,4.271-12.891,8.024-21.373,11.259l-3.112-4.348c7.933-2.197,14.981-5.568,21.145-10.115
			c-5.614-5.583-10.634-13.318-15.058-23.204h-3.158v-4.852h39.314v4.852c-2.746,9.215-7.323,16.995-13.73,23.342
			C235.576,412.688,242.701,415.969,250.939,418.013z M250.023,373.801h-10.847c-1.679,0-3.083-0.655-4.211-1.968
			c-1.098-1.22-1.647-2.685-1.647-4.394v-19.955H216.43v3.112c0,5.89-0.763,11.062-2.289,15.516
			c-1.678,4.974-4.287,8.803-7.826,11.487l-4.394-2.792c3.722-2.563,6.376-6.162,7.963-10.801c1.159-3.479,1.739-7.688,1.739-12.632
			v-8.65h26.545v23.8c0,0.671,0.252,1.281,0.755,1.83c0.503,0.55,1.03,0.824,1.579,0.824h9.52V373.801z M238.353,384.831h-25.95
			c3.753,8.513,8.314,15.226,13.685,20.138C231.305,400.026,235.393,393.313,238.353,384.831z"/>
		<path fill="#163672" d="M301.787,404.42h-16.385v18.078h-4.807V404.42h-17.711v-4.76h17.711v-10.618h-15.469v-4.669h8.559
			c-0.732-4.271-2.045-8.985-3.936-14.142h-6.271v-4.623h17.117v-9.656h-14.874v-4.577h14.874v-10.572h4.715v10.572h14.143v4.577
			h-14.143v9.656h15.561v4.623h-5.446c-1.007,4.668-2.288,9.382-3.845,14.142h7.873v4.669h-14.051v10.618h16.385V404.42z
			 M290.436,370.231h-15.469c1.465,4.76,2.654,9.474,3.57,14.142h8.375C288.438,379.645,289.612,374.931,290.436,370.231z
			 M344.441,418.974l-2.7,3.753c-4.363-2.776-8.833-6.712-13.409-11.808c-3.174,4.119-7.308,8.024-12.403,11.716h-0.366
			l-3.158-3.387c5.401-3.6,9.733-7.535,12.998-11.808c-5.522-7.872-9.459-18.154-11.808-30.848h-3.845v45.905h-4.668v-79.453h34.875
			c0.121,7.477-0.092,12.655-0.641,15.538c-0.55,2.884-1.747,4.813-3.593,5.79c-1.847,0.977-6.034,1.358-12.563,1.145l-1.419-4.394
			c6.712,0,10.458-0.16,11.236-0.481c0.777-0.32,1.373-1.524,1.784-3.615c0.412-2.09,0.572-5.225,0.48-9.405H309.75v24.211h30.298
			c-0.915,14.433-3.89,26.18-8.924,35.241C334.815,411.773,339.255,415.74,344.441,418.974z M334.877,376.593h-16.66
			c2.532,11.961,5.843,20.778,9.932,26.454C331.81,395.907,334.053,387.09,334.877,376.593z"/>
		<path fill="#163672" d="M377.623,341.261c-0.854,2.929-2.075,6.606-3.661,11.029l-2.335,6.499v63.617h-4.668V368.63
			c-2.776,5.217-5.37,9.397-7.78,12.54l-2.93-4.852c7.323-9.824,12.861-21.983,16.614-36.477L377.623,341.261z M432.361,408.173
			h-32.907l2.746,2.929c-4.974,4.607-12.067,8.513-21.282,11.717l-2.838-4.027c8.909-3.417,15.607-6.957,20.093-10.618h-13.685
			v-33.273h47.873V408.173z M438.356,347.073h-19.771v6.179h16.293v16.796h-53.41v-16.796h16.476v-6.179h-18.261v-4.211h58.674
			V347.073z M397.943,365.929v-8.649h-11.899v8.649H397.943z M427.692,384.648v-5.722h-38.536v5.722H427.692z M427.692,394.488
			v-5.996h-38.536v5.996H427.692z M427.692,404.236v-5.995h-38.536v5.995H427.692z M414.1,353.252v-6.179h-11.625v6.179H414.1z
			 M414.1,365.929v-8.649h-11.625v8.649H414.1z M438.723,418.287l-2.792,4.119c-5.889-3.234-12.982-5.95-21.282-8.146l2.518-4.119
			C426.532,412.826,433.718,415.541,438.723,418.287z M430.302,365.929v-8.649h-11.717v8.649H430.302z"/>
	</g>
	<g>
		<rect x="217" y="186" fill="#163672" width="27" height="81"/>
		<rect x="170" y="207" fill="#163672" width="28" height="60"/>
		<rect x="266" y="169" fill="#163672" width="27" height="98"/>
		<rect x="312" y="135" fill="#163672" width="28" height="132"/>
		<rect x="155" y="263" fill="#163672" width="204" height="8"/>
		<g>
			<polygon fill="#EA5400" points="159.632,233.819 239.902,152.947 263.936,159.761 313.605,120.028 304.037,108.86 
				340.595,103.557 330.897,139.997 321.329,128.891 269.389,172.543 239.902,164.503 161.418,235.646 			"/>
		</g>
	</g>
</g>
</svg>
