<?xml version="1.0" encoding="utf-8"?>
<!-- Generator: Adobe Illustrator 15.1.0, SVG Export Plug-In . SVG Version: 6.00 Build 0)  -->
<!DOCTYPE svg PUBLIC "-//W3C//DTD SVG 1.1//EN" "http://www.w3.org/Graphics/SVG/1.1/DTD/svg11.dtd">
<svg version="1.1" xmlns="http://www.w3.org/2000/svg" xmlns:xlink="http://www.w3.org/1999/xlink" x="0px" y="0px" width="512px"
	 height="512px" viewBox="0 0 512 512" enable-background="new 0 0 512 512" xml:space="preserve">
<g id="外框">
	<path fill="#FFFFFF" stroke="#B5B5B5" stroke-width="2" stroke-miterlimit="10" d="M509,469.234
		C509,491.197,491.818,509,469.855,509H44.385C22.424,509,4,491.197,4,469.234V43.764C4,21.803,22.424,4,44.385,4h425.47
		C491.818,4,509,21.803,509,43.764V469.234z"/>
</g>
<g id="icon_x5F_1">
	<g>
		<path fill="#163672" d="M105.718,415.633c0,3.479-1.709,5.538-5.126,6.179c-1.709,0.305-4.21,0.366-7.506,0.183l-2.06-4.76
			c2.624,0.214,5.095,0.229,7.415,0.046c1.647-0.152,2.471-1.037,2.471-2.654V385.06c-2.563,2.991-6.621,7.323-12.174,12.998
			l-2.609-2.7c-1.281,11.29-3.402,20.153-6.362,26.591l-4.073-3.157c4.546-10.313,6.819-23.326,6.819-39.04v-37.209h23.204V415.633z
			 M100.912,378.24v-7.23l-2.654,2.288c-2.289-2.807-5.996-6.3-11.122-10.48v17.574c0,4.547-0.229,8.91-0.687,13.09
			C90.904,389.484,95.725,384.404,100.912,378.24z M100.912,347.348H87.136v13.364l2.334-2.334
			c3.845,2.898,7.658,6.361,11.442,10.389V347.348z M157.207,418.013l-2.792,4.668c-8.543-2.716-16.08-6.528-22.609-11.441
			c-5.767,4.271-12.891,8.024-21.373,11.259l-3.112-4.348c7.933-2.197,14.981-5.568,21.145-10.115
			c-5.614-5.583-10.634-13.318-15.058-23.204h-3.158v-4.852h39.314v4.852c-2.746,9.215-7.323,16.995-13.73,23.342
			C141.843,412.688,148.968,415.969,157.207,418.013z M156.291,373.801h-10.847c-1.679,0-3.083-0.655-4.211-1.968
			c-1.098-1.22-1.647-2.685-1.647-4.394v-19.955h-16.888v3.112c0,5.89-0.763,11.062-2.289,15.516
			c-1.678,4.974-4.287,8.803-7.826,11.487l-4.394-2.792c3.722-2.563,6.376-6.162,7.963-10.801c1.159-3.479,1.739-7.688,1.739-12.632
			v-8.65h26.545v23.8c0,0.671,0.252,1.281,0.755,1.83c0.503,0.55,1.03,0.824,1.579,0.824h9.52V373.801z M144.62,384.831h-25.95
			c3.753,8.513,8.314,15.226,13.685,20.138C137.572,400.026,141.661,393.313,144.62,384.831z"/>
		<path fill="#163672" d="M197.299,404.786c-8.177,6.469-16.431,11.533-24.76,15.194l-3.936-4.027
			c7.902-2.99,16.156-7.796,24.76-14.417L197.299,404.786z M250.893,347.439h-27.827v7.23h21.557v18.811h-68.789V354.67h21.373
			v-7.23h-27.964v-4.669h81.649V347.439z M250.16,396.914h-37.712v25.813h-4.76v-25.813H169.93v-4.577h80.23V396.914z
			 M244.531,384.739h-68.789v-4.576h68.789V384.739z M197.207,368.721v-9.382h-16.613v9.382H197.207z M218.352,354.67v-7.23h-16.385
			v7.23H218.352z M218.352,368.721v-9.382h-16.385v9.382H218.352z M250.526,416.822l-3.662,3.342
			c-6.377-4.821-14.493-9.718-24.348-14.691l3.25-3.937C234.797,406.083,243.051,411.179,250.526,416.822z M239.954,368.721v-9.382
			h-16.888v9.382H239.954z"/>
		<path fill="#163672" d="M338.354,400.301h-32.539v21.923h-4.943v-21.923H268.33v-45.813h32.541v-14.463h4.943v14.463h32.539
			V400.301z M300.871,374.717v-15.378h-27.645v15.378H300.871z M300.871,395.541v-16.064h-27.645v16.064H300.871z M333.457,374.717
			v-15.378h-27.643v15.378H333.457z M333.457,395.541v-16.064h-27.643v16.064H333.457z"/>
		<path fill="#163672" d="M381.924,399.202h-14.232l2.607,2.151c-2.684,8.055-6.117,15.18-10.297,21.373l-3.479-3.021
			c3.326-5.309,6.545-12.144,9.656-20.504h-5.902v-55.425h21.646V399.202z M377.348,360.482V348.08H364.99v12.402H377.348z
			 M377.348,377.233v-12.266H364.99v12.266H377.348z M377.348,394.763v-12.906H364.99v12.906H377.348z M383.893,416.914
			l-4.027,1.877c-1.373-4.211-3.463-8.971-6.27-14.28l4.119-1.876C380.461,407.883,382.52,412.643,383.893,416.914z
			 M438.447,406.388h-6.361v9.382c0,1.771-0.383,3.158-1.145,4.165c-0.764,1.007-1.725,1.678-2.883,2.014
			c-1.16,0.336-3.449,0.504-6.865,0.504c-1.709,0-3.295-0.046-4.76-0.138l-1.785-4.76c2.043,0.062,5.537,0.092,10.48,0.092
			c1.648,0,2.471-0.869,2.471-2.608v-8.65h-31.213v16.247h-4.531v-16.247h-7.598v-4.119h7.598v-22.105h17.438v-7.049h-23.891v-4.027
			h13.867v-7.231h-10.021v-4.119h10.021v-6.27h-13.135v-4.119h13.135v-6.865h4.578v6.865h15.469v-6.865h4.623v6.865h12.906v4.119
			h-12.906v6.27h9.84v4.119h-9.84v7.231h14.324v4.027h-24.256v7.049h18.078v22.105h6.361V406.388z M409.293,391.33v-6.865h-12.906
			v6.865H409.293z M409.293,402.269v-6.637h-12.906v6.637H409.293z M419.316,357.736v-6.27h-15.469v6.27H419.316z M419.316,369.087
			v-7.231h-15.469v7.231H419.316z M427.6,391.33v-6.865h-13.592v6.865H427.6z M427.6,402.269v-6.637h-13.592v6.637H427.6z"/>
	</g>
	<g>
		
			<rect x="173.5" y="91.5" fill-rule="evenodd" clip-rule="evenodd" fill="#FFFFFF" stroke="#003366" stroke-width="3" stroke-miterlimit="10" width="143" height="170"/>
		<g>
			<polygon fill-rule="evenodd" clip-rule="evenodd" fill="#163672" points="301.259,141.223 301.259,155.275 287.217,155.275 
				287.217,141.223 301.259,141.223 			"/>
			<polygon fill-rule="evenodd" clip-rule="evenodd" fill="#163672" points="278.5,165.403 278.5,179.451 193.555,179.451 
				193.555,165.403 278.5,165.403 			"/>
			<polygon fill-rule="evenodd" clip-rule="evenodd" fill="#163672" points="301.259,165.403 301.259,179.451 287.217,179.451 
				287.217,165.403 301.259,165.403 			"/>
			<polygon fill-rule="evenodd" clip-rule="evenodd" fill="#163672" points="278.5,117.051 278.5,131.091 193.555,131.091 
				193.555,117.051 278.5,117.051 			"/>
			<polygon fill-rule="evenodd" clip-rule="evenodd" fill="#163672" points="301.259,117.051 301.259,131.091 287.217,131.091 
				287.217,117.051 301.259,117.051 			"/>
			<rect x="193.555" y="141.223" fill-rule="evenodd" clip-rule="evenodd" fill="#163672" width="84.945" height="14.052"/>
			<polygon fill-rule="evenodd" clip-rule="evenodd" fill="#163672" points="278.5,189.58 278.5,203.628 193.555,203.628 
				193.555,189.58 278.5,189.58 			"/>
			<polygon fill-rule="evenodd" clip-rule="evenodd" fill="#163672" points="301.259,189.58 301.259,203.628 287.217,203.628 
				287.217,189.58 301.259,189.58 			"/>
			<polygon fill-rule="evenodd" clip-rule="evenodd" fill="#163672" points="278.5,213.757 278.5,227.805 193.555,227.805 
				193.555,213.757 278.5,213.757 			"/>
			<polygon fill-rule="evenodd" clip-rule="evenodd" fill="#163672" points="301.259,213.757 301.259,227.805 287.217,227.805 
				287.217,213.757 301.259,213.757 			"/>
		</g>
		<polygon fill="#EA5400" points="348.71,196.605 305.722,239.592 289.479,223.348 272.624,240.205 288.865,256.446 
			305.722,273.302 322.576,256.446 365.564,213.457 		"/>
	</g>
</g>
</svg>
