<?xml version="1.0" encoding="utf-8"?>
<!-- Generator: Adobe Illustrator 15.1.0, SVG Export Plug-In . SVG Version: 6.00 Build 0)  -->
<!DOCTYPE svg PUBLIC "-//W3C//DTD SVG 1.1//EN" "http://www.w3.org/Graphics/SVG/1.1/DTD/svg11.dtd">
<svg version="1.1" xmlns="http://www.w3.org/2000/svg" xmlns:xlink="http://www.w3.org/1999/xlink" x="0px" y="0px" width="512px"
	 height="512px" viewBox="0 0 512 512" enable-background="new 0 0 512 512" xml:space="preserve">
<g id="外框">
	<path fill="#FFFFFF" stroke="#B5B5B5" stroke-width="2" stroke-miterlimit="10" d="M509,469.234C509,491.197,491.863,509,469.9,509
		H44.431C22.47,509,4,491.197,4,469.234V43.764C4,21.803,22.47,4,44.431,4H469.9C491.863,4,509,21.803,509,43.764V469.234z"/>
</g>
<g id="icon_x5F_1">
	<g>
		<path fill="#163672" d="M100.683,382.68c-2.38,1.282-5.446,2.717-9.199,4.303v28.971c0,2.532-0.694,4.218-2.083,5.058
			c-1.389,0.839-4.204,1.258-8.444,1.258c-1.068,0-1.922-0.045-2.563-0.137l-1.511-4.76c2.258,0.092,4.226,0.137,5.904,0.137
			c1.678,0,2.769-0.197,3.272-0.595c0.503-0.396,0.755-0.991,0.755-1.785v-26.087c-4.119,1.709-7.643,2.99-10.572,3.845
			l-1.602-4.669c5.248-1.647,9.306-3.112,12.174-4.394v-22.426h-11.35v-4.394h11.35v-16.614h4.668v16.614h8.559v4.394h-8.559v20.55
			c2.197-0.946,4.79-2.167,7.78-3.662L100.683,382.68z M155.146,354.213c-0.458,3.692-1.77,8.437-3.936,14.233l-4.302-1.145
			c1.312-3.387,2.273-6.285,2.883-8.695h-22.655v4.852l16.019-0.916l0.183,4.028l-16.202,0.915v2.746
			c0,0.549,0.198,1.075,0.595,1.579c0.396,0.503,0.884,0.755,1.464,0.755h22.105v4.394h-23.433c-3.631,0-5.446-1.998-5.446-5.995
			v-3.066l-10.755,0.732l-0.458-4.028l11.213-0.687v-5.309h-13.868v15.836c0,13.761-0.817,24.173-2.449,31.236
			c-1.632,7.063-3.684,12.517-6.156,16.361l-4.21-2.517c2.349-3.754,4.279-8.711,5.79-14.875c1.51-6.163,2.266-15.21,2.266-27.14
			v-23.296h20.687V340.3h4.897v4.53h21.831v4.394h-21.831v4.989H155.146z M157.48,417.098l-2.975,3.433
			c-5.584-4.119-10.146-8.208-13.685-12.267c0.244,4.669-0.229,8.186-1.419,10.55s-4.058,3.547-8.604,3.547
			c-1.526,0-2.945-0.076-4.256-0.229l-1.19-4.394c2.105,0.213,4.012,0.32,5.721,0.32c2.044,0,3.456-0.595,4.233-1.785
			c0.778-1.189,1.076-3.92,0.893-8.192c-6.347,4.943-14.936,9.261-25.767,12.952l-2.517-3.936
			c12.143-3.753,21.328-8.192,27.552-13.318c-0.183-1.739-0.656-3.311-1.418-4.715c-6.622,4.76-14.112,8.422-22.472,10.984
			l-2.471-3.753c9.672-2.989,17.33-6.636,22.975-10.938c-0.641-0.854-1.48-1.8-2.517-2.837c-5.279,2.808-11.03,4.988-17.254,6.544
			l-2.517-3.936c9.031-1.922,16.689-5.004,22.975-9.245h-20.916v-4.531h43.937v4.531h-16.751c-1.831,1.647-3.738,3.143-5.721,4.485
			c1.586,1.587,3.112,3.799,4.577,6.636c4.729-1.556,9.611-3.89,14.646-7.002l2.7,3.57c-3.906,2.41-9.062,4.836-15.469,7.276
			C143.857,406.373,149.761,411.788,157.48,417.098z"/>
		<path fill="#163672" d="M179.037,404.236c-1.831,7.72-3.83,13.745-5.996,18.078l-4.302-1.968c2.624-5.4,4.653-11.243,6.087-17.529
			L179.037,404.236z M210.159,400.393h-40.962v-4.485h18.307v-9.108h-15.835v-4.394h15.835v-7.872H172.31V342.68h35.058v31.854
			h-15.195v7.872h15.378v4.394h-15.378v9.108h17.987V400.393z M187.504,370.14v-23.066h-10.526v23.066H187.504z M185.627,364.785
			l-3.753,1.602c-0.732-4.394-1.8-8.925-3.204-13.593l3.479-1.602C183.889,356.593,185.048,361.124,185.627,364.785z
			 M188.236,420.851l-4.668,0.731c0.061-1.221,0.091-2.502,0.091-3.844c0-4.516-0.382-9.017-1.144-13.502l4.668-0.457
			C187.885,409.516,188.236,415.206,188.236,420.851z M199.221,419.065l-4.439,1.099c-0.275-5.218-1.267-10.71-2.975-16.477
			l4.394-0.778C197.694,408.127,198.702,413.513,199.221,419.065z M202.653,370.14v-23.066h-10.481v23.066H202.653z M201.28,352.61
			c-0.946,5.371-2.228,10.055-3.845,14.051l-3.661-1.51c1.739-4.669,2.929-9.321,3.57-13.959L201.28,352.61z M210.342,416.731
			l-4.211,1.373c-1.068-5.34-2.625-10.236-4.668-14.691l4.485-1.053C208.115,407.395,209.579,412.186,210.342,416.731z
			 M250.846,361.215h-19.771v18.078h15.744v43.021h-4.852v-7.186h-22.975v7.186h-4.989v-43.021h12.083V340.62h4.989v16.019h19.771
			V361.215z M241.967,410.323v-26.315h-22.975v26.315H241.967z"/>
		<path fill="#163672" d="M344.944,372.657l-2.883,4.302c-10.344-6.071-22.32-11.351-35.928-15.835v13.501h27.78v32.907h-60.092
			v-32.907h27.552v-18.353c-7.812,7.598-19.803,14.585-35.974,20.961l-3.295-4.302c15.012-4.973,26.819-11.381,35.424-19.223
			h-34.417v-4.668h38.262v-8.925h4.76v8.925h38.262v4.668h-38.262v2.563C320.748,360.91,333.686,366.372,344.944,372.657z
			 M344.853,420.255H262.93v-4.668h81.923V420.255z M328.926,388.492v-9.199h-50.252v9.199H328.926z M328.926,402.635v-9.337
			h-50.252v9.337H328.926z"/>
		<path fill="#163672" d="M388.332,354.854h-31.396v-4.623h14.096l-4.165-8.695l4.715-1.785l4.576,10.48h12.175V354.854z
			 M385.632,368.538h-26.637v-4.485h26.637V368.538z M385.632,382.039h-26.637v-4.622h26.637V382.039z M384.396,420.164h-4.852
			v-4.943h-14.828v7.094h-4.852v-31.213h24.531V420.164z M379.544,410.507v-14.691h-14.828v14.691H379.544z M436.434,352.794
			c0,11.839-0.184,24.165-0.55,36.98c-0.366,12.814-0.74,20.359-1.121,22.632c-0.382,2.273-1.251,4.227-2.608,5.858
			c-1.358,1.632-3.082,2.73-5.172,3.295c-2.091,0.564-4.828,0.847-8.216,0.847h-5.034l-1.647-4.942
			c1.8,0.091,3.813,0.137,6.041,0.137c4.821,0,7.796-0.389,8.925-1.167s1.938-1.77,2.426-2.975s0.991-7.796,1.511-19.771
			c0.519-11.976,0.777-24.081,0.777-36.316h-29.428c-1.923,3.143-4.364,6.605-7.323,10.389h25.492v39.223h-26.133v-38.17
			c-1.281,1.801-2.411,3.204-3.387,4.211l-3.753-2.884c8.879-10.923,15.026-21.053,18.444-30.39l4.531,1.511
			c-1.221,3.631-2.976,7.476-5.264,11.533H436.434z M415.838,384.099v-11.625h-16.705v11.625H415.838z M415.838,402.177v-13.409
			h-16.705v13.409H415.838z"/>
	</g>
	<g>
		<g>
			<polygon fill="#FFFFFF" stroke="#003366" stroke-width="2" stroke-miterlimit="10" points="321.42,270 191.715,270 212.062,208 
				301.074,208 			"/>
			<polygon fill="#EA5400" points="313.519,247 199.567,247 203.777,237 309.958,237 			"/>
			<polygon fill="#EA5400" points="290.901,269 271.826,269 261.655,209 280.729,209 			"/>
		</g>
		<path fill="#003366" d="M256.567,99.556c-22.666,0-41.043,18.375-41.043,41.042s41.043,92.197,41.043,92.197
			s41.045-69.529,41.045-92.197S279.234,99.556,256.567,99.556z M256.005,154.225c-9.093,0-16.461-7.369-16.461-16.459
			c0-9.089,7.369-16.458,16.461-16.458c9.088,0,16.457,7.369,16.457,16.458C272.462,146.856,265.093,154.225,256.005,154.225z"/>
	</g>
</g>
</svg>
