<?xml version="1.0" encoding="utf-8"?>
<!-- Generator: Adobe Illustrator 15.1.0, SVG Export Plug-In . SVG Version: 6.00 Build 0)  -->
<!DOCTYPE svg PUBLIC "-//W3C//DTD SVG 1.1//EN" "http://www.w3.org/Graphics/SVG/1.1/DTD/svg11.dtd">
<svg version="1.1" xmlns="http://www.w3.org/2000/svg" xmlns:xlink="http://www.w3.org/1999/xlink" x="0px" y="0px" width="512px"
	 height="512px" viewBox="0 0 512 512" enable-background="new 0 0 512 512" xml:space="preserve">
<g id="圖層_1">
	<g id="外框">
		<path fill="#FFFFFF" stroke="#B5B5B5" stroke-width="2" stroke-miterlimit="10" d="M508.858,469.234
			c0,21.963-17.588,39.767-39.551,39.767H43.837c-21.961,0-39.979-17.804-39.979-39.767V43.764C3.858,21.803,21.876,4,43.837,4
			h425.471c21.962,0,39.55,17.803,39.55,39.764V469.234z"/>
	</g>
	<g>
		<path fill="#163672" d="M156.448,347.621h-42.473v20.047c16.323,8.666,27.354,15.516,33.09,20.55l-2.975,4.577
			c-7.994-6.684-18.032-13.183-30.115-19.497v49.017h-5.034v-74.692H75.165v-5.033h81.283V347.621z"/>
		<path fill="#163672" d="M250.363,409.134h-38.261v12.998h-4.852v-12.998h-38.262v-4.531h38.262v-7.598h-28.604v-29.611h62.152
			v29.611h-28.696v7.598h38.261V409.134z M205.556,361.031H175.67v-18.443h29.886V361.031z M200.797,356.272v-9.108h-20.184v9.108
			H200.797z M207.25,379.477v-7.552h-23.708v7.552H207.25z M207.25,392.429v-8.421h-23.708v8.421H207.25z M235.946,379.477v-7.552
			h-23.845v7.552H235.946z M235.946,392.429v-8.421h-23.845v8.421H235.946z M244.001,361.031h-29.795v-18.443h29.795V361.031z
			 M239.104,356.454v-9.198h-20.138v9.198H239.104z"/>
		<path fill="#163672" d="M344.095,405.473h-19.771v9.152c0,5.247-2.914,7.872-8.742,7.872c-2.288,0-5.188-0.062-8.694-0.184
			l-2.242-4.668c1.982,0.092,4.438,0.138,7.367,0.138c3.662,0,5.797-0.168,6.408-0.504c0.608-0.335,0.916-0.961,0.916-1.876v-9.932
			h-56.707v-4.395h56.707v-4.715h4.987v4.715h19.771V405.473L344.095,405.473z M342.858,350.734H305.97v6.453h29.611v25.492h-4.896
			c4.455,3.876,8.268,8.071,11.441,12.587l-3.936,2.7c-1.71-2.502-3.203-4.378-4.484-5.63c-25.203,1.922-47.859,2.93-67.967,3.021
			l-1.234-4.348c11.381,0.092,23.57-0.152,36.568-0.732v-7.598h-29.795v-25.492h29.795v-6.453h-37.209v-4.302h37.209v-5.813h4.896
			v5.813h36.89V350.734L342.858,350.734z M301.073,367.668v-6.271H276.13v6.271H301.073z M301.073,378.47v-6.638H276.13v6.638
			H301.073z M294.985,416.136l-3.111,3.753c-4.424-3.782-9.016-6.88-13.775-9.29l3.112-3.616
			C285.573,409.058,290.165,412.108,294.985,416.136z M330.776,367.668v-6.271H305.97v6.271H330.776z M330.776,378.47v-6.638H305.97
			v6.638H330.776z M329.677,388.31c-1.738-1.739-2.898-2.838-3.477-3.295l3.065-2.335H305.97v7.323
			C315.794,389.484,323.696,388.92,329.677,388.31z"/>
		<path fill="#163672" d="M437.552,420.255h-65.631c-2.777,0-5.111-0.894-7.002-2.678c-1.893-1.784-2.838-4.202-2.838-7.255v-62.976
			h-5.813v-4.76h79.406v4.76h-68.604v63.159c0,1.313,0.564,2.472,1.693,3.479s2.211,1.51,3.25,1.51h65.539V420.255z
			 M398.374,406.846h-24.576v-23.524h24.576V406.846z M393.478,402.269v-14.233h-14.691v14.233H393.478z M420.388,375.266h-38.123
			v-20.32h38.123V375.266L420.388,375.266z M415.538,370.598v-10.984h-28.332v10.984H415.538z M431.19,406.982h-24.211v-23.57
			h24.211V406.982z M426.476,402.36v-14.234h-14.6v14.234H426.476z"/>
	</g>
</g>
<g id="圖層_2">
	<g>
		<g>
			<path fill="#163672" d="M159.735,265.792c-4.924,0-8.957-4.353-8.957-9.705V96.946c0-5.34,4.033-9.708,8.957-9.708h220.792
				c4.919,0,8.938,4.368,8.938,9.708v159.141c0,5.353-4.02,9.705-8.938,9.705H159.735z"/>
			<rect x="159.385" y="95.291" fill="#FFFFFF" width="221.475" height="146.711"/>
			<path fill="#FFFFFF" d="M270.225,246.928c3.152,0,5.715,2.558,5.715,5.715s-2.563,5.723-5.715,5.723
				c-3.164,0-5.722-2.565-5.722-5.723S267.061,246.928,270.225,246.928z"/>
			<rect x="269.5" y="261.5" fill="#163672" width="5" height="16"/>
			<rect x="207.5" y="277.5" fill="#163672" width="128" height="3"/>
		</g>
		<g>
			<path fill="#163672" d="M88.229,142.888c0-2.979,2.375-5.419,5.29-5.419h86.716c2.911,0,5.292,2.44,5.292,5.419V276.49
				c0,2.976-2.38,5.408-5.292,5.408H93.519c-2.915,0-5.29-2.433-5.29-5.408V142.888z"/>
			<rect x="97.129" y="147.906" fill="#FFFFFF" width="79.496" height="112.833"/>
			<path fill="#FFFFFF" d="M141.971,271.556c0,2.594-2.099,4.699-4.698,4.699c-2.593,0-4.696-2.105-4.696-4.699
				c0-2.592,2.103-4.698,4.696-4.698C139.872,266.858,141.971,268.964,141.971,271.556z"/>
		</g>
		<g>
			<path fill="#163672" d="M363.444,185.275c0-2.071,1.486-3.766,3.318-3.766h54.407c1.825,0,3.318,1.695,3.318,3.766v92.865
				c0,2.068-1.493,3.759-3.318,3.759h-54.407c-1.832,0-3.318-1.69-3.318-3.759V185.275z"/>
			<rect x="364.166" y="188.762" fill="#FFFFFF" width="59.597" height="78.428"/>
			<path fill="#FFFFFF" d="M402.5,272.714c0,0.435-0.353,0.786-0.787,0.786h-16.426c-0.435,0-0.787-0.352-0.787-0.786v-0.428
				c0-0.435,0.353-0.786,0.787-0.786h16.426c0.435,0,0.787,0.352,0.787,0.786V272.714z"/>
		</g>
		<g>
			<rect x="229.5" y="158.5" fill="#EA5400" width="21" height="57"/>
			<rect x="258.5" y="146.5" fill="#EA5400" width="22" height="69"/>
			<rect x="293.5" y="126.5" fill="#EA5400" width="18" height="89"/>
			<rect x="229.5" y="220.5" fill="#EA5400" width="82" height="6"/>
		</g>
		<g>
			<rect x="110.5" y="198.5" fill="#EA5400" width="15" height="40"/>
			<rect x="131.5" y="189.5" fill="#EA5400" width="16" height="49"/>
			<rect x="151.5" y="173.5" fill="#EA5400" width="13" height="65"/>
			<rect x="110.5" y="241.5" fill="#EA5400" width="54" height="5"/>
		</g>
		<g>
			<rect x="371.5" y="222.5" fill="#EA5400" width="10" height="28"/>
			<rect x="389.5" y="220.5" fill="#EA5400" width="11" height="30"/>
			<rect x="408.5" y="204.5" fill="#EA5400" width="10" height="46"/>
			<rect x="371.5" y="252.5" fill="#EA5400" width="47" height="7"/>
		</g>
	</g>
</g>
</svg>
