<?xml version="1.0" encoding="utf-8"?>
<!-- Generator: Adobe Illustrator 15.1.0, SVG Export Plug-In . SVG Version: 6.00 Build 0)  -->
<!DOCTYPE svg PUBLIC "-//W3C//DTD SVG 1.1//EN" "http://www.w3.org/Graphics/SVG/1.1/DTD/svg11.dtd">
<svg version="1.1" xmlns="http://www.w3.org/2000/svg" xmlns:xlink="http://www.w3.org/1999/xlink" x="0px" y="0px" width="512px"
	 height="512px" viewBox="0 0 512 512" enable-background="new 0 0 512 512" xml:space="preserve">
<g id="外框">
	<path fill="#FFFFFF" stroke="#B5B5B5" stroke-width="2" stroke-miterlimit="10" d="M509,469.234
		C509,491.197,492.15,509,470.188,509H44.717C22.756,509,4,491.197,4,469.234V43.764C4,21.803,22.756,4,44.717,4h425.47
		C492.15,4,509,21.803,509,43.764V469.234z"/>
</g>
<g id="icon_x5F_1">
	<g>
		<path fill="#163672" d="M54.104,346.981c0,0.488-0.885,3.853-2.654,10.092c-1.77,6.24-3.295,11.221-4.577,14.943
			c4.729,7.567,7.094,14.936,7.094,22.105c0,8.116-3.799,11.839-11.396,11.167l-1.602-4.988c1.281,0.092,2.349,0.137,3.204,0.137
			c3.631,0,5.446-1.693,5.446-5.08c0-7.749-2.533-15.316-7.597-22.7c3.6-11.015,6.071-19.604,7.414-25.768H37.033v75.608h-4.394
			v-79.91h21.465V346.981z M110.901,416.319l-1.693,4.988c-1.922,0.092-3.89,0.138-5.904,0.138c-6.469,0-13.486-0.488-21.053-1.465
			c-7.567-0.977-13.944-3.845-19.131-8.604c-3.295,4.913-6.011,8.62-8.146,11.122l-3.662-2.7
			c8.94-10.71,14.218-21.328,15.836-31.854H57.033v-4.531c3.112-5.187,5.98-11.518,8.604-18.993H54.882v-4.302h15.561v4.302
			c-3.234,8.452-5.965,14.783-8.192,18.993h9.749c0,6.865-2.243,14.813-6.728,23.845c3.233,3.204,7.521,5.577,12.86,7.117
			C83.471,415.915,94.395,416.563,110.901,416.319z M69.848,352.702l-3.57,2.884c-2.441-4.607-5.34-8.909-8.696-12.906l3.661-2.655
			C64.966,344.053,67.834,348.278,69.848,352.702z M110.444,350.46H88.796c-0.702,1.525-1.648,3.265-2.838,5.218h21.007v4.118
			H96.851v5.996h12.769v3.936H78.681v-3.523c-0.549,0.58-1.464,1.449-2.746,2.608l-2.883-3.479
			c3.845-3.845,7.338-8.802,10.481-14.874H74.15v-4.027h11.259c0.854-1.801,1.708-3.905,2.563-6.316l4.302,1.693l-1.693,4.623
			h19.863V350.46z M107.148,404.42c0,4.394-2.396,6.59-7.186,6.59c-2.868,0-4.531-0.029-4.988-0.091l-1.419-4.439
			c2.166,0.122,3.813,0.183,4.943,0.183c2.715,0,4.073-0.899,4.073-2.7v-7.872c-3.57,1.495-9.657,3.555-18.261,6.179l-2.06-2.884
			c-1.587,4.425-3.188,7.705-4.806,9.841l-3.753-1.969c4.119-6.376,6.179-15.347,6.179-26.911v-5.538h27.277V404.42z
			 M92.274,365.792v-5.996h-8.741c-1.221,1.862-2.746,3.86-4.577,5.996H92.274z M102.572,391.514v-12.77H84.402v3.845
			c6.743,1.435,11.792,2.837,15.149,4.21l-1.465,3.937c-3.967-1.495-8.558-2.838-13.776-4.027c-0.305,4.76-0.839,8.604-1.602,11.533
			C88.75,396.563,95.371,394.32,102.572,391.514z"/>
		<path fill="#163672" d="M205,377.233c-4.181,3.814-8.711,7.629-13.593,11.442v25.767c0,2.441-0.588,4.257-1.762,5.446
			c-1.175,1.19-3.295,1.861-6.362,2.015c-3.066,0.152-6.201,0.229-9.405,0.229c-1.953,0-3.844-0.031-5.675-0.092l-1.328-4.852
			c4.607,0.153,8.33,0.229,11.167,0.229c4.088,0,6.529-0.214,7.323-0.641c0.793-0.428,1.19-1.297,1.19-2.609v-21.831
			c-12.632,10.68-33.319,20.215-62.061,28.604l-2.243-4.622c24.47-6.683,43.463-14.89,56.98-24.623
			c-18.795,2.654-36.95,4.531-54.463,5.63l-1.19-4.897c3.173,0,6.422-0.152,9.749-0.458v-43.296h11.899
			c3.753-3.691,6.316-6.728,7.689-9.107l5.721,1.144c-1.221,1.801-3.417,4.455-6.591,7.964h39.36v33.73
			c2.654-1.86,6.133-4.835,10.435-8.925L205,377.233z M186.555,361.307v-7.872h-48.193v7.872H186.555z M186.555,374.717v-8.422
			h-48.193v8.422H186.555z M186.555,386.158v-6.453h-48.193v11.809C151.115,390.781,167.18,388.996,186.555,386.158z"/>
		<path fill="#163672" d="M295.207,383.55h-4.988v-8.559h-66.18v8.421h-4.668v-12.814h75.836V383.55z M231.179,354.579l-4.119,2.242
			c-2.319-4.149-4.73-7.612-7.231-10.389l3.936-2.655C227.212,348.05,229.683,351.649,231.179,354.579z M255.619,346.799
			c-4.181,2.745-9.368,5.309-15.561,7.688l-0.549,1.968c6.499,3.112,11.534,5.737,15.104,7.872l-2.746,4.027
			c-2.746-1.922-7.552-4.637-14.417-8.146c-3.936,4.272-8.65,7.14-14.142,8.604l-2.837-3.936c4.394-1.099,7.933-2.716,10.618-4.852
			c2.685-2.136,4.34-4.798,4.966-7.986c0.625-3.188,0.938-7.041,0.938-11.557h4.577c-0.122,3.906-0.274,6.789-0.458,8.65
			c3.387-1.19,7.261-3.128,11.625-5.813L255.619,346.799z M291.271,422.406h-4.897v-3.524h-58.399v3.433h-4.76v-20.687h27.827
			c1.281-2.44,2.181-4.531,2.7-6.271h-22.838V380.62h52.678v14.737h-24.394c-1.099,2.533-2.029,4.623-2.792,6.271h34.875V422.406z
			 M286.374,414.442v-8.237h-58.399v8.237H286.374z M278.686,390.918v-5.813h-42.93v5.813H278.686z M295.024,364.785l-2.563,4.21
			c-6.133-3.691-11.777-6.498-16.934-8.421c-3.875,3.57-9.261,6.286-16.156,8.146l-2.7-4.119c7.505-1.83,12.578-4.233,15.217-7.208
			c2.639-2.975,3.852-8.611,3.639-16.911h4.668c0,2.259-0.152,5.202-0.457,8.833c4.668-2.014,8.695-4.286,12.082-6.819l2.884,3.524
			c-4.119,2.898-9.398,5.66-15.836,8.284c-0.214,0.854-0.519,1.693-0.915,2.517C283.109,358.805,288.8,361.46,295.024,364.785z
			 M269.623,353.801l-4.256,1.968c-1.221-2.654-3.372-6.025-6.453-10.114l3.844-2.334
			C265.626,346.585,267.914,350.078,269.623,353.801z"/>
		<path fill="#163672" d="M391.73,398.882h-38.032v23.845h-4.989v-23.845h-38.536v-4.668h38.536v-7.689h-34.417v-4.394h34.417
			v-7.323h-36.385v-4.576h24.485c-1.526-2.716-3.28-5.156-5.264-7.323l3.57-2.242h-24.943v-4.714h30.938v-15.149h4.806v15.149
			h10.572v-15.149h4.669v15.149h30.39v4.714h-24.395L370.54,363c-1.068,2.35-2.624,4.76-4.668,7.231h23.708v4.576h-35.882v7.323
			h33.639v4.394h-33.639v7.689h38.032V398.882z M340.38,406.021c-6.896,5.432-15.836,10.206-26.82,14.325l-3.112-4.119
			c11.809-4.211,20.596-8.68,26.362-13.41L340.38,406.021z M331.546,351.467l-4.118,2.426c-2.289-3.021-5.355-6.163-9.199-9.429
			l4.256-2.929C326.146,344.922,329.166,348.232,331.546,351.467z M365.964,360.666h-29.703c2.867,3.936,4.927,7.125,6.179,9.565
			h17.62C363.05,366.356,365.018,363.168,365.964,360.666z M391.822,417.372l-2.792,3.845c-9.581-6.225-18.704-11.168-27.369-14.829
			l2.792-3.753C375.01,407.212,384.133,412.124,391.822,417.372z M384.225,343.869c-2.594,3.661-5.752,6.911-9.474,9.749
			l-4.302-2.426c4.18-3.57,7.307-6.729,9.382-9.475L384.225,343.869z"/>
		<path fill="#163672" d="M477.134,406.021h-44.532l2.608,3.387c-8.451,5.858-18.2,10.298-29.245,13.318l-2.7-4.439
			c9.916-2.196,19.283-6.285,28.102-12.266h-19.589v-39.177h65.356V406.021z M474.616,360.849h-60.001V342.68h60.001V360.849z
			 M472.145,378.195v-6.865h-55.47v6.865H472.145z M472.145,389.545v-6.956h-55.47v6.956H472.145z M472.145,401.628v-7.598h-55.47
			v7.598H472.145z M469.719,356.363v-9.29h-50.161v9.29H469.719z M485.371,418.562l-2.791,4.073
			c-8.452-4.089-18.231-7.246-29.337-9.474l2.608-4.348C467.079,411.163,476.92,414.413,485.371,418.562z"/>
	</g>
	<g>
		<path fill="#DE680E" d="M341,243.207C341,258.556,325.134,271,309.786,271H196.929C181.578,271,173,258.556,173,243.207V130.351
			c0-15.35,8.578-27.351,23.929-27.351h112.857C325.134,103,341,115.001,341,130.351V243.207z"/>
		<g>
			<g>
				<polygon fill="#002F7C" points="214.274,167.507 256.293,125.488 214.274,125.488 				"/>
				<polygon fill="#002F7C" points="256.293,209.528 214.274,167.507 214.274,209.528 				"/>
				<polygon fill="#002F7C" points="256.293,209.528 298.313,167.507 298.313,209.528 				"/>
				<polygon fill="#44AF35" points="298.313,167.507 256.293,125.488 298.313,125.488 				"/>
				<linearGradient id="SVGID_1_" gradientUnits="userSpaceOnUse" x1="235.3604" y1="146.5747" x2="256.8257" y2="168.0401">
					<stop  offset="0" style="stop-color:#E73E0C"/>
					<stop  offset="0.2" style="stop-color:#E95504"/>
					<stop  offset="0.52" style="stop-color:#F08600"/>
					<stop  offset="1" style="stop-color:#FFE600"/>
				</linearGradient>
				<polygon fill="url(#SVGID_1_)" points="256.293,125.488 214.274,167.507 256.293,167.507 				"/>
				
					<linearGradient id="SVGID_2_" gradientUnits="userSpaceOnUse" x1="-2920.272" y1="4695.6172" x2="-2898.8059" y2="4717.0835" gradientTransform="matrix(0 -1 1 0 -4460.2568 -2731.8311)">
					<stop  offset="0" style="stop-color:#E73E0C"/>
					<stop  offset="0.2" style="stop-color:#E95504"/>
					<stop  offset="0.52" style="stop-color:#F08600"/>
					<stop  offset="1" style="stop-color:#FFE600"/>
				</linearGradient>
				<polygon fill="url(#SVGID_2_)" points="214.274,167.507 256.293,209.528 256.293,167.507 				"/>
				<polygon fill="#FFFFFF" points="298.313,167.507 256.293,209.528 256.293,167.507 				"/>
				<linearGradient id="SVGID_3_" gradientUnits="userSpaceOnUse" x1="277.4609" y1="146.3398" x2="256.2938" y2="167.507">
					<stop  offset="0" style="stop-color:#003383"/>
					<stop  offset="0.2" style="stop-color:#003787"/>
					<stop  offset="0.52" style="stop-color:#005BA9"/>
					<stop  offset="1" style="stop-color:#009FE8"/>
				</linearGradient>
				<polygon fill="url(#SVGID_3_)" points="298.313,167.507 256.293,125.488 256.293,167.507 				"/>
			</g>
			<rect x="213.043" y="124.249" fill="none" stroke="#FFFFFF" width="86.303" height="86.798"/>
		</g>
		<g>
			<path fill="#FFFFFF" d="M323.641,238.332h-9.242c-0.876-1.273-1.363-2.326-1.502-2.803h8.266v-2.149h-4.366
				c0.957-1.713,1.999-4.196,2.029-4.172h-2.908c-0.429,1.002-1.198,2.85-1.903,4.172h-3.776c0.869-2.498,1.226-4.548,1.303-5.356
				h-2.461c-0.158,1.737-0.632,3.562-1.358,5.356h-1.675c-0.813-2.085-1.611-4.149-1.624-4.172h-2.774
				c0.006,0.021,0.901,2.31,1.63,4.172h-4.452v2.149h7.896c-0.509,0.963-1.085,1.906-1.722,2.803h-8.652v2.397h6.704
				c-1.948,2.094-4.241,3.769-6.704,4.662v2.26c2.265-0.594,4.211-1.562,5.871-2.765v0.882h4.998
				c-0.51,3.271-5.084,5.965-7.203,6.475v2.246c4.085-1.207,8.814-3.501,9.951-8.721h4.755c-0.189,4.328-0.261,5.681-0.637,5.971
				c-0.141,0.115-0.329,0.175-0.572,0.175c-0.707,0.03-2.123-0.03-3.046-0.09l0.297,2.138c0.979,0.03,2.63,0.085,3.364,0.058
				c0.73-0.027,1.299-0.143,1.705-0.401c0.773-0.542,1.053-2.677,1.312-7.872c0.009-0.146,0.03-0.575,0.03-0.575v-0.011
				c-0.005-0.216-0.048-0.415-0.124-0.598c1.747,1.286,3.9,2.403,6.526,3.087v-2.26c-3.143-1.094-5.514-2.886-7.221-4.662h7.287
				V238.332z M309.394,235.529h0.824c0.169,0.489,0.585,1.521,1.318,2.803h-3.547C308.532,237.392,308.996,236.45,309.394,235.529z
				 M315.6,243.598h-11.797c0.982-0.889,1.846-1.861,2.602-2.869h6.729c0.743,0.961,1.649,1.957,2.736,2.895
				C315.783,243.608,315.688,243.598,315.6,243.598z"/>
			<path fill="#FFFFFF" d="M200.615,236.4h-11v2.083h11V236.4z M201.003,249.34l-2.679,0.453l0.998-2.984h-2.168L196,250.188
				l-2.051,0.34c-0.109-1.12-0.335-2.35-0.859-3.719h-2.301c0.517,1.205,0.892,2.837,1.031,4.029
				c-1.227,0.188-2.172,0.327-3.071,0.436v2.559c3.011-0.547,8.84-1.955,12.254-2.674V249.34z M191.188,235.213h9.427v-6.321h-2.342
				v4.253h-1.991v-5.121h-2.337v5.121h-1.992v-4.253h-2.338v4.745C189.615,234.506,190.321,235.213,191.188,235.213z
				 M191.188,245.988h9.427v-4.766c0-0.872-0.705-1.575-1.577-1.575h-9.423v4.769C189.615,245.283,190.321,245.988,191.188,245.988z
				 M192.052,241.542h6.116v2.538h-6.116V241.542z M212.759,251.876c-0.57-0.06-0.758-0.318-0.758-0.87l0.006-20.541
				c0-0.87-0.707-1.574-1.574-1.574h-6.557v12.824c0,4.591-0.359,9.126-3.313,12.36h2.646c3.01-3.469,3.117-7.336,3.117-12.36V231
				h2.969l0.015,20.438c0,1.534,0.434,2.399,1.818,2.632c0.756,0.143,2.764,0.113,4.145,0.028l0.436-2.251
				C214.543,251.934,213.274,251.904,212.759,251.876z"/>
			<g>
				<path fill="#FFFFFF" d="M251.646,241.641h-6.806v-8.84h4.424v-2.147h-4.424v-2.63h-2.568v2.63h-8.533v-2.63h-2.563v2.63h-4.426
					v2.147h4.426v8.84h-6.811v2.154h6.313c-0.94,1.705-3.674,3.698-6.313,4.484v2.425c3.234-0.994,5.288-2.232,6.605-3.41v1.794
					h5.687v2.831h-9.665v2.151h22.029v-2.151h-9.671v-2.831h5.687v-1.794c1.322,1.177,3.373,2.416,6.607,3.41v-2.425
					c-2.634-0.786-5.371-2.779-6.313-4.484h6.313V241.641z M233.766,232.801h8.481v1.508h-8.481V232.801z M233.766,236.465h8.481
					v1.519h-8.481V236.465z M233.766,240.133h8.481v1.508h-8.481V240.133z M239.371,246.937v-2.224h-2.726v2.224h-5.288
					c1.378-1.32,2.013-2.484,2.288-3.142h8.725c0.271,0.658,0.904,1.822,2.288,3.142H239.371z"/>
			</g>
			<path fill="#FFFFFF" d="M261.79,235.277h9.216v-2.234h-9.216V235.277z M269.921,237.161h-7.046v2.232h7.046V237.161z
				 M262.875,243.472h7.046v-2.237h-7.046V243.472z M269.664,229.007h-6.528v2.162h6.528V229.007z M268.853,245.228h-6.479v7.276
				c0,0.87,0.705,1.572,1.574,1.572h6.478v-7.274C270.425,245.935,269.72,245.228,268.853,245.228z M267.998,251.906h-3.2v-4.525
				h3.2V251.906z M284.695,235.993c1.171-0.893,2.102-1.647,2.858-2.397l-1.401-1.288c-0.568,0.694-1.314,1.367-2.346,2.232
				c-0.349-0.637-0.594-1.237-0.894-1.985c1.304-0.983,2.335-1.848,3.151-2.688l-1.337-1.305c-0.597,0.724-1.314,1.397-2.371,2.296
				c-0.221-0.701-0.345-1.132-0.471-1.734h-2.091c0.657,3.294,1.602,5.61,2.922,7.692h-6.678c1.184-1.796,2.098-3.924,2.657-6.317
				c0.005-0.011,0.021-0.081,0.03-0.128c0.021-0.205,0.066-0.622-0.21-0.966c-0.021-0.021-0.198-0.282-0.704-0.282l-5.7-0.004v1.97
				h4.272c-0.354,1.179-0.639,2.027-1.181,3.033c-0.652-0.66-1.438-1.327-2.361-1.989l-1.115,1.269
				c1.005,0.777,1.816,1.557,2.47,2.369c-0.446,0.827-1.649,2.143-2.948,2.852v2.247c1.066-0.243,2.948-1.664,4.051-3.005v1.1h8.122
				v-1.092c1.013,1.305,2.914,2.521,4.063,2.976v-2.226C286.212,237.875,285.093,236.721,284.695,235.993z M284.161,247.971h-2.396
				c-0.68,1.414-1.23,3.984-1.23,3.984h-2.344c0,0-0.554-2.57-1.23-3.984h-2.396c0.568,1.213,1.028,2.858,1.248,3.984h-4.204v2.121
				h15.51v-2.121h-4.207C283.132,250.829,283.589,249.184,284.161,247.971z M285.296,247.152v-5.071c0-0.87-0.701-1.575-1.572-1.575
				h-10.3v5.072c0,0.87,0.703,1.574,1.572,1.574H285.296z M275.65,242.63h7.417v2.369h-7.417V242.63z"/>
		</g>
	</g>
</g>
</svg>
